<?xml version="1.0" encoding="utf-8"?>
<!-- Generator: Adobe Illustrator 16.0.0, SVG Export Plug-In . SVG Version: 6.00 Build 0)  -->
<!DOCTYPE svg PUBLIC "-//W3C//DTD SVG 1.1//EN" "http://www.w3.org/Graphics/SVG/1.1/DTD/svg11.dtd">
<svg version="1.1" xmlns="http://www.w3.org/2000/svg" xmlns:xlink="http://www.w3.org/1999/xlink" x="0px" y="0px" width="38px"
	 height="38px" viewBox="0 0 38 38" enable-background="new 0 0 38 38" xml:space="preserve">
<g id="Layer_5">
	<circle fill="#3B3B3B" cx="19" cy="19" r="19"/>
</g>
<g id="Layer_3">
	<path fill="#FFFFFF" d="M23.188,33.125c0,0,0.219-8.688-1.156-8.906c0,0,6.406-0.406,7.406-5.938
		c0.938-4.969-1.469-6.688-1.469-6.688s0.813-2.109-0.25-4.469c-1.109-0.469-4.375,1.719-4.375,1.719s-4.172-1.359-8.531,0
		c0,0-2.547-1.875-4.406-1.719c-1.156,2.75-0.219,4.438-0.219,4.438s-2.083,1.188-1.594,6.094c0.511,6.761,8.125,6.594,8.125,6.594
		s-1.063-0.5-1.625,2.125c-1.719,0.938-3.5,0.219-3.5,0.219s-2.156-2.375-2.688-2.875s-2.031-0.438-2.156-0.188
		c2.063,1.625,1.875,1.938,1.875,1.938c0.969,2.281,2.25,3.125,2.25,3.125s2.844,1.156,4.188-0.063l-0.156,4.594H23.188z"/>
</g>
</svg>
