<?xml version="1.0" encoding="utf-8"?>
<!-- Generator: Adobe Illustrator 16.0.0, SVG Export Plug-In . SVG Version: 6.00 Build 0)  -->
<!DOCTYPE svg PUBLIC "-//W3C//DTD SVG 1.1//EN" "http://www.w3.org/Graphics/SVG/1.1/DTD/svg11.dtd">
<svg version="1.1" id="Layer_5" xmlns="http://www.w3.org/2000/svg" xmlns:xlink="http://www.w3.org/1999/xlink" x="0px" y="0px"
	 width="38px" height="38px" viewBox="0 0 38 38" enable-background="new 0 0 38 38" xml:space="preserve">
<circle fill="#3B3B3B" cx="19.001" cy="19" r="18.5"/>
<g>
	<g>
		<path fill="#F1F2F2" d="M19,8.059c-4.142,0-7.5,3.357-7.5,7.5c0,1.16,0.264,2.26,0.735,3.24C12.261,18.854,19,32.059,19,32.059
			l6.684-13.096c0.521-1.021,0.816-2.178,0.816-3.404C26.5,11.416,23.143,8.059,19,8.059z M19,20.059c-2.485,0-4.5-2.016-4.5-4.5
			s2.015-4.5,4.5-4.5s4.5,2.016,4.5,4.5S21.484,20.059,19,20.059z"/>
	</g>
	<g>
	</g>
	<g>
	</g>
	<g>
	</g>
	<g>
	</g>
	<g>
	</g>
	<g>
	</g>
	<g>
	</g>
	<g>
	</g>
	<g>
	</g>
	<g>
	</g>
	<g>
	</g>
	<g>
	</g>
	<g>
	</g>
	<g>
	</g>
	<g>
	</g>
</g>
</svg>
