<?xml version="1.0" encoding="utf-8"?>
<!-- Generator: Adobe Illustrator 16.0.0, SVG Export Plug-In . SVG Version: 6.00 Build 0)  -->
<!DOCTYPE svg PUBLIC "-//W3C//DTD SVG 1.1//EN" "http://www.w3.org/Graphics/SVG/1.1/DTD/svg11.dtd">
<svg version="1.1" id="Layer_1" xmlns="http://www.w3.org/2000/svg" xmlns:xlink="http://www.w3.org/1999/xlink" x="0px" y="0px"
	 width="244.032px" height="455.565px" viewBox="114.06 0 244.032 455.565" enable-background="new 114.06 0 244.032 455.565"
	 xml:space="preserve">
<polygon fill="#3D3D3D" stroke="#3D3D3D" stroke-width="2" stroke-miterlimit="10" points="182.11,13.667 117.807,13.667 117.807,1 
	173.447,1 "/>
<polygon fill="#3D3D3D" stroke="#3D3D3D" stroke-width="2" stroke-miterlimit="10" points="174.254,454.051 118.175,454.051 
	118.175,442.769 182.799,442.769 "/>
<rect x="114.06" y="3.497" fill="none" width="54.433" height="16.165"/>
<text transform="matrix(1.0141 0 0 1 122.6001 10.2744)" fill="#9A9A99" font-family="'Bebas'" font-size="7.6069">EXPERIENCE</text>
<rect x="121.577" y="445.424" fill="none" width="41.241" height="10.142"/>
<text transform="matrix(1.0141 0 0 1 125.1792 452.2002)" fill="#9A9A99" font-family="'Bebas'" font-size="7.6069">eDUCATION</text>
<rect x="118.274" y="195.801" fill="#808285" width="64.619" height="59.058"/>
<rect x="184.433" y="195.801" fill="#A7A9AC" width="173.453" height="59.058"/>
<rect x="129.045" y="208.866" fill="none" width="44.649" height="15.185"/>
<text transform="matrix(1 0 0 1 141.54 217.3682)" fill="#FFFFFF" font-family="'Bebas'" font-size="9.5407">2007</text>
<rect x="120.491" y="239.533" fill="none" width="62.438" height="21.234"/>
<text transform="matrix(1 0 0 1 142.5605 248.0352)" fill="#FFFFFF" font-family="'Bebas'" font-size="9.5407">2012</text>
<line fill="none" stroke="#FFFFFF" stroke-width="2" stroke-miterlimit="10" x1="147.196" y1="224.024" x2="156.737" y2="224.024"/>
<rect x="127" y="200.688" fill="none" width="49.407" height="23.171"/>
<text transform="matrix(1 0 0 1 135.8018 205.5552)" fill="#FFFFFF" font-family="'HelveticaNeueLT-Medium'" font-size="6.8148">JANUARY</text>
<rect x="127.007" y="230.333" fill="none" width="49.407" height="23.17"/>
<text transform="matrix(1 0 0 1 144.2002 235.1992)" fill="#FFFFFF" font-family="'HelveticaNeueLT-Medium'" font-size="6.8148">MAY</text>
<rect x="118.259" y="135.26" fill="#808285" width="64.619" height="59.058"/>
<rect x="184.418" y="135.26" fill="#A7A9AC" width="173.453" height="59.058"/>
<rect x="129.03" y="148.326" fill="none" width="44.649" height="15.185"/>
<text transform="matrix(1 0 0 1 143.1064 156.8267)" fill="#FFFFFF" font-family="'Bebas'" font-size="9.5407">2011</text>
<rect x="120.476" y="178.993" fill="none" width="62.439" height="21.235"/>
<text transform="matrix(1 0 0 1 142.5547 187.4941)" fill="#FFFFFF" font-family="'Bebas'" font-size="9.5407">2013</text>
<line fill="none" stroke="#FFFFFF" stroke-width="2" stroke-miterlimit="10" x1="147.182" y1="163.482" x2="156.723" y2="163.482"/>
<rect x="126.985" y="140.148" fill="none" width="49.407" height="23.17"/>
<text transform="matrix(1 0 0 1 137.6816 145.0142)" fill="#FFFFFF" font-family="'HelveticaNeueLT-Medium'" font-size="6.8148">AUGUST</text>
<rect x="126.992" y="169.792" fill="none" width="49.407" height="23.17"/>
<text transform="matrix(1 0 0 1 139.0747 174.6582)" fill="#FFFFFF" font-family="'HelveticaNeueLT-Medium'" font-size="6.8148">MARCH</text>
<rect x="118.032" y="74.693" fill="#808285" width="64.62" height="59.059"/>
<rect x="184.194" y="74.693" fill="#A7A9AC" width="173.453" height="59.059"/>
<rect x="128.807" y="87.76" fill="none" width="44.649" height="15.185"/>
<text transform="matrix(1 0 0 1 141.9912 96.2607)" fill="#FFFFFF" font-family="'Bebas'" font-size="9.5407">2013</text>
<rect x="120.252" y="118.427" fill="none" width="62.439" height="21.235"/>
<text transform="matrix(1 0 0 1 142.4785 126.9282)" fill="#FFFFFF" font-family="'Bebas'" font-size="9.5407">2016</text>
<line fill="none" stroke="#FFFFFF" stroke-width="2" stroke-miterlimit="10" x1="146.958" y1="102.917" x2="156.499" y2="102.917"/>
<rect x="126.762" y="79.583" fill="none" width="49.407" height="23.17"/>
<text transform="matrix(1 0 0 1 130.6982 84.4482)" fill="#FFFFFF" font-family="'HelveticaNeueLT-Medium'" font-size="6.8148">SEPTEMBER</text>
<rect x="126.768" y="109.227" fill="none" width="49.407" height="23.17"/>
<text transform="matrix(1 0 0 1 143.9619 114.0918)" fill="#FFFFFF" font-family="'HelveticaNeueLT-Medium'" font-size="6.8148">MAY</text>
<rect x="117.734" y="14.313" fill="#808285" width="64.231" height="59.058"/>
<rect x="183.517" y="14.313" fill="#A7A9AC" width="174.369" height="59.058"/>
<rect x="128.129" y="27.379" fill="none" width="44.649" height="15.184"/>
<text transform="matrix(1 0 0 1 141.4673 35.8804)" fill="#FFFFFF" font-family="'Bebas'" font-size="9.5407">2017</text>
<line fill="none" stroke="#FFFFFF" stroke-width="2" stroke-miterlimit="10" x1="146.28" y1="42.536" x2="155.821" y2="42.536"/>
<rect x="126.085" y="19.202" fill="none" width="49.407" height="23.17"/>
<text transform="matrix(1 0 0 1 142.335 24.0669)" fill="#FFFFFF" font-family="'HelveticaNeueLT-Medium'" font-size="6.8148">JULY</text>
<rect x="126.091" y="48.846" fill="none" width="49.407" height="23.17"/>
<text transform="matrix(1 0 0 1 135.1406 53.7109)" fill="#FFFFFF" font-family="'HelveticaNeueLT-Medium'" font-size="6.8148">PRESENT</text>
<rect x="117.886" y="262.355" fill="#A7A9AC" width="175.059" height="59.058"/>
<rect x="293.172" y="262.355" fill="#808285" width="64.715" height="59.058"/>
<rect x="301.502" y="275.421" fill="none" width="44.648" height="15.184"/>
<text transform="matrix(1 0 0 1 313.9971 283.9229)" fill="#FFFFFF" font-family="'Bebas'" font-size="9.5407">2007</text>
<rect x="292.948" y="306.088" fill="none" width="62.438" height="21.235"/>
<text transform="matrix(1 0 0 1 314.3311 314.5889)" fill="#FFFFFF" font-family="'Bebas'" font-size="9.5407">2009</text>
<line fill="none" stroke="#FFFFFF" stroke-width="2" stroke-miterlimit="10" x1="319.654" y1="290.578" x2="329.194" y2="290.578"/>
<rect x="299.457" y="267.244" fill="none" width="49.407" height="23.17"/>
<text transform="matrix(1 0 0 1 311.54 272.1094)" fill="#FFFFFF" font-family="'HelveticaNeueLT-Medium'" font-size="6.8148">MARCH</text>
<rect x="299.464" y="296.888" fill="none" width="49.407" height="23.17"/>
<text transform="matrix(1 0 0 1 315.7139 301.7534)" fill="#FFFFFF" font-family="'HelveticaNeueLT-Medium'" font-size="6.8148">JULY</text>
<rect x="118.167" y="323.02" fill="#A7A9AC" width="175.098" height="59.059"/>
<rect x="293.487" y="323.02" fill="#808285" width="64.399" height="59.059"/>
<rect x="301.817" y="336.086" fill="none" width="44.649" height="15.185"/>
<text transform="matrix(1 0 0 1 314.8965 344.5869)" fill="#FFFFFF" font-family="'Bebas'" font-size="9.5407">2014</text>
<rect x="293.264" y="366.753" fill="none" width="62.438" height="21.234"/>
<text transform="matrix(1 0 0 1 315.4961 375.2539)" fill="#FFFFFF" font-family="'Bebas'" font-size="9.5407">2017</text>
<line fill="none" stroke="#FFFFFF" stroke-width="2" stroke-miterlimit="10" x1="319.97" y1="351.243" x2="329.511" y2="351.243"/>
<rect x="299.772" y="327.909" fill="none" width="49.407" height="23.17"/>
<text transform="matrix(1 0 0 1 310.4697 332.7739)" fill="#FFFFFF" font-family="'HelveticaNeueLT-Medium'" font-size="6.8148">AUGUST</text>
<rect x="299.779" y="357.553" fill="none" width="49.407" height="23.17"/>
<text transform="matrix(1 0 0 1 307.8779 362.418)" fill="#FFFFFF" font-family="'HelveticaNeueLT-Medium'" font-size="6.8148">OCTOBER</text>
<rect x="118.167" y="382.977" fill="#A7A9AC" width="174.968" height="59.059"/>
<rect x="293.358" y="382.977" fill="#808285" width="64.528" height="59.059"/>
<rect x="301.69" y="396.043" fill="none" width="44.649" height="15.185"/>
<text transform="matrix(1 0 0 1 315.0283 404.5439)" fill="#FFFFFF" font-family="'Bebas'" font-size="9.5407">2017</text>
<rect x="293.137" y="426.71" fill="none" width="62.438" height="21.234"/>
<text transform="matrix(1 0 0 1 315.3682 435.2109)" fill="#FFFFFF" font-family="'Bebas'" font-size="9.5407">2017</text>
<line fill="none" stroke="#FFFFFF" stroke-width="2" stroke-miterlimit="10" x1="319.842" y1="411.2" x2="329.383" y2="411.2"/>
<rect x="299.646" y="387.865" fill="none" width="49.407" height="23.17"/>
<text transform="matrix(1 0 0 1 303.582 392.7314)" fill="#FFFFFF" font-family="'HelveticaNeueLT-Medium'" font-size="6.8148">SEPTEMBER</text>
<rect x="299.651" y="417.51" fill="none" width="49.407" height="23.17"/>
<text transform="matrix(1 0 0 1 305.1035 422.375)" fill="#FFFFFF" font-family="'HelveticaNeueLT-Medium'" font-size="6.8148">NOVEMBER</text>
<rect x="184.433" y="212.837" fill="none" width="173.453" height="23.17"/>
<text transform="matrix(1 0 0 1 230.1367 223.7666)" fill="#3D3D3D" font-family="'Bebas'" font-size="12.2666">Self-Employed</text>
<rect x="213.981" y="229.652" fill="none" width="114.261" height="13.629"/>
<text transform="matrix(1 0 0 1 225.5127 236.4639)" fill="#E6E7E8" font-family="'HelveticaNeueLT-Medium'" font-size="9.5407">Digital Photographer</text>
<rect x="184.638" y="153.058" fill="none" width="173.454" height="23.17"/>
<text transform="matrix(1 0 0 1 217.3896 163.9883)" fill="#3D3D3D" font-family="'Bebas'" font-size="12.2666">Louisville  Marriott</text>
<rect x="214.187" y="169.874" fill="none" width="114.262" height="13.629"/>
<text transform="matrix(1 0 0 1 231.6377 176.6855)" fill="#E6E7E8" font-family="'HelveticaNeueLT-Medium'" font-size="9.5407">Sales Coordinator</text>
<rect x="184.194" y="89.686" fill="none" width="173.453" height="23.17"/>
<text transform="matrix(1 0 0 1 201.8945 100.6152)" fill="#3D3D3D" font-family="'Bebas'" font-size="12.2666">Family  Care  Chiropractic</text>
<rect x="213.742" y="106.501" fill="none" width="114.262" height="13.629"/>
<text transform="matrix(1 0 0 1 237.0186 113.3125)" fill="#E6E7E8" font-family="'HelveticaNeueLT-Medium'" font-size="9.5407">Office Manager</text>
<rect x="183.517" y="27.261" fill="none" width="173.454" height="23.17"/>
<text transform="matrix(1 0 0 1 191.79 37.583)" fill="#3D3D3D" font-family="'Bebas'" font-size="11.5851">Tourbillion  Alliance  Partners</text>
<rect x="182.835" y="44.076" fill="none" width="174.37" height="20.722"/>
<text transform="matrix(1 0 0 1 198.623 50.8877)" fill="#E6E7E8" font-family="'HelveticaNeueLT-Medium'" font-size="9.5407">Front-End Web Developer Intern</text>
<rect x="119.003" y="277.918" fill="none" width="173.455" height="23.17"/>
<text transform="matrix(1 0 0 1 147.252 288.8472)" fill="#3D3D3D" font-family="'Bebas'" font-size="12.2666">University  of  Phoenix</text>
<rect x="148.552" y="294.051" fill="none" width="114.261" height="28.288"/>
<text transform="matrix(1 0 0 1 161.2236 300.8628)" fill="#E6E7E8" font-family="'HelveticaNeueLT-Medium'" font-size="9.5407">Bacholor of Science</text>
<text transform="matrix(1 0 0 1 177.9712 309.0405)" fill="#E6E7E8" font-family="'HelveticaNeueLT-Medium'" font-size="6.8148">Applied Info Tech</text>
<text transform="matrix(1 0 0 1 157.1689 316.4004)" fill="#E6E7E8" font-family="'HelveticaNeueLT-Medium'" font-size="6.1333">w/ Concentration in Software Dev. </text>
<rect x="119.685" y="336.524" fill="none" width="173.454" height="23.171"/>
<text transform="matrix(1 0 0 1 123.6416 346.8467)" fill="#3D3D3D" font-family="'Bebas'" font-size="11.5851">South  new Hampshire  University</text>
<rect x="120.14" y="353.339" fill="none" width="172.667" height="28.739"/>
<text transform="matrix(1 0 0 1 160.0723 360.1514)" fill="#E6E7E8" font-family="'HelveticaNeueLT-Medium'" font-size="9.5407">Dual Associate of Art</text>
<text transform="matrix(1 0 0 1 172.1606 367.5117)" fill="#E6E7E8" font-family="'HelveticaNeueLT-Medium'" font-size="6.1333">Business Administration</text>
<text transform="matrix(1 0 0 1 173.2432 374.8711)" fill="#E6E7E8" font-family="'HelveticaNeueLT-Medium'" font-size="6.1333">Visual Communications</text>
<rect x="118.695" y="399.221" fill="none" width="173.455" height="23.17"/>
<text transform="matrix(1 0 0 1 164.4541 410.1504)" fill="#3D3D3D" font-family="'Bebas'" font-size="12.2666">Code  Louisville</text>
<rect x="148.245" y="416.035" fill="none" width="114.261" height="13.629"/>
<text transform="matrix(1 0 0 1 152.625 422.8477)" fill="#E6E7E8" font-family="'HelveticaNeueLT-Medium'" font-size="9.5407">Front-End Development</text>
<line fill="none" stroke="#3D3D3D" stroke-width="2" stroke-miterlimit="10" x1="183.66" y1="13.667" x2="335.618" y2="14.313"/>
<ellipse fill="#3D3D3D" stroke="#3D3D3D" stroke-width="2" stroke-miterlimit="10" cx="336.811" cy="14.467" rx="2.556" ry="2.888"/>
<line fill="none" stroke="#3D3D3D" stroke-width="2" stroke-miterlimit="10" x1="119.798" y1="73.637" x2="335.618" y2="74.283"/>
<ellipse fill="#3D3D3D" stroke="#3D3D3D" stroke-width="2" stroke-miterlimit="10" cx="336.811" cy="74.438" rx="2.556" ry="2.888"/>
<line fill="none" stroke="#3D3D3D" stroke-width="2" stroke-miterlimit="10" x1="119.93" y1="134.288" x2="335.75" y2="134.935"/>
<ellipse fill="#3D3D3D" stroke="#3D3D3D" stroke-width="2" stroke-miterlimit="10" cx="336.942" cy="135.089" rx="2.556" ry="2.888"/>
<line fill="none" stroke="#3D3D3D" stroke-width="2" stroke-miterlimit="10" x1="120.601" y1="194.259" x2="336.42" y2="194.904"/>
<ellipse fill="#3D3D3D" stroke="#3D3D3D" stroke-width="2" stroke-miterlimit="10" cx="337.613" cy="195.059" rx="2.555" ry="2.888"/>
<line fill="none" stroke="#3D3D3D" stroke-width="2" stroke-miterlimit="10" x1="141.385" y1="262.407" x2="357.205" y2="263.052"/>
<ellipse fill="#3D3D3D" stroke="#3D3D3D" stroke-width="2" stroke-miterlimit="10" cx="138.621" cy="262.526" rx="2.556" ry="2.888"/>
<line fill="none" stroke="#3D3D3D" stroke-width="2" stroke-miterlimit="10" x1="141.385" y1="321.695" x2="357.921" y2="322.341"/>
<ellipse fill="#3D3D3D" stroke="#3D3D3D" stroke-width="2" stroke-miterlimit="10" cx="138.621" cy="321.814" rx="2.556" ry="2.888"/>
<line fill="none" stroke="#3D3D3D" stroke-width="2" stroke-miterlimit="10" x1="141.385" y1="382.347" x2="357.921" y2="382.992"/>
<ellipse fill="#3D3D3D" stroke="#3D3D3D" stroke-width="2" stroke-miterlimit="10" cx="138.621" cy="382.466" rx="2.556" ry="2.888"/>
</svg>
