<?xml version="1.0" encoding="utf-8"?>
<!-- Generator: Adobe Illustrator 16.0.0, SVG Export Plug-In . SVG Version: 6.00 Build 0)  -->
<!DOCTYPE svg PUBLIC "-//W3C//DTD SVG 1.1//EN" "http://www.w3.org/Graphics/SVG/1.1/DTD/svg11.dtd">
<svg version="1.1" id="Layer_1" xmlns="http://www.w3.org/2000/svg" xmlns:xlink="http://www.w3.org/1999/xlink" x="0px" y="0px"
	 width="1176.433px" height="349.754px" viewBox="0 0 1176.433 349.754" enable-background="new 0 0 1176.433 349.754"
	 xml:space="preserve">
<g id="Layer_2">
	<rect x="29.869" y="145.083" fill="#818285" width="110.659" height="42.747"/>
	<rect x="140.527" y="145.083" fill="#A8AAAD" width="96.82" height="42.747"/>
	<rect x="237.347" y="145.083" fill="#818285" width="96.818" height="42.747"/>
	<rect x="334.165" y="145.083" fill="#A8AAAD" width="96.818" height="42.747"/>
	<rect x="430.984" y="145.083" fill="#818285" width="96.818" height="42.747"/>
	<rect x="527.801" y="145.083" fill="#A8AAAD" width="96.816" height="42.747"/>
	<rect x="624.619" y="145.083" fill="#818285" width="96.824" height="42.747"/>
	<rect x="721.443" y="145.083" fill="#A8AAAD" width="96.814" height="42.747"/>
	<rect x="818.257" y="145.083" fill="#818285" width="96.818" height="42.747"/>
	<rect x="915.076" y="145.083" fill="#A8AAAD" width="96.818" height="42.747"/>
	<rect x="1011.894" y="145.083" fill="#818285" width="108.947" height="42.747"/>
	<line fill="none" stroke="#B3AFB1" stroke-miterlimit="10" x1="91.101" y1="87.138" x2="576.945" y2="87.138"/>
	<line fill="none" stroke="#B3AFB1" stroke-miterlimit="10" x1="576.211" y1="138.244" x2="575.662" y2="85.063"/>
	<line fill="none" stroke="#B3AFB1" stroke-miterlimit="10" x1="93.213" y1="138.244" x2="93.213" y2="87.138"/>
	<line fill="none" stroke="#B3AFB1" stroke-miterlimit="10" x1="673.031" y1="138.244" x2="673.023" y2="69.354"/>
	<line fill="none" stroke="#B3AFB1" stroke-miterlimit="10" x1="673.023" y1="111.209" x2="576.945" y2="111.209"/>
	<line fill="none" stroke="#B3AFB1" stroke-miterlimit="10" x1="673.023" y1="72.072" x2="963.488" y2="72.072"/>
	<line fill="none" stroke="#B3AFB1" stroke-miterlimit="10" x1="963.488" y1="69.695" x2="963.488" y2="138.244"/>
	<line fill="none" stroke="#B3AFB1" stroke-miterlimit="10" x1="963.488" y1="115.782" x2="1060.306" y2="115.782"/>
	<line fill="none" stroke="#B3AFB1" stroke-miterlimit="10" x1="1094.783" y1="138.244" x2="1094.783" y2="113.236"/>
	<line fill="none" stroke="#B3AFB1" stroke-miterlimit="10" x1="624.988" y1="40.003" x2="624.988" y2="111.209"/>
	<line fill="none" stroke="#B3AFB1" stroke-miterlimit="10" x1="1056.58" y1="91.787" x2="1056.58" y2="114.588"/>
	<line fill="none" stroke="#B3AFB1" stroke-miterlimit="10" x1="1060.306" y1="115.782" x2="1096.492" y2="115.782"/>
	<line fill="none" stroke="#B3AFB1" stroke-miterlimit="10" x1="94.923" y1="194.721" x2="94.923" y2="282.794"/>
	<line fill="none" stroke="#B3AFB1" stroke-miterlimit="10" x1="93.213" y1="282.794" x2="285.757" y2="282.794"/>
	<line fill="none" stroke="#B3AFB1" stroke-miterlimit="10" x1="284.047" y1="282.794" x2="284.047" y2="201.55"/>
	<line fill="none" stroke="#B3AFB1" stroke-miterlimit="10" x1="771.556" y1="199.238" x2="771.556" y2="295.313"/>
	<line fill="none" stroke="#B3AFB1" stroke-miterlimit="10" x1="769.851" y1="292.866" x2="1062.769" y2="292.866"/>
	<line fill="none" stroke="#B3AFB1" stroke-miterlimit="10" x1="1061.724" y1="294.973" x2="1061.724" y2="196.43"/>
	<line fill="none" stroke="#B3AFB1" stroke-miterlimit="10" x1="1061.724" y1="238.188" x2="1108.716" y2="238.188"/>
	<line fill="none" stroke="#B3AFB1" stroke-miterlimit="10" x1="1107.003" y1="238.188" x2="1107.003" y2="198.093"/>
	<line fill="none" stroke="#B3AFB1" stroke-miterlimit="10" x1="1085.216" y1="238.188" x2="1085.216" y2="302.254"/>
	<polygon fill="#3E3E3E" stroke="#3E3E3E" stroke-width="2" stroke-miterlimit="10" points="177.43,53.664 6.387,53.664 
		6.387,19.494 154.386,19.494 	"/>
	<polygon fill="#3E3E3E" stroke="#3E3E3E" stroke-width="2" stroke-miterlimit="10" points="154.598,345.668 4.785,345.668 
		4.785,315.232 177.43,315.232 	"/>
	<rect y="27.714" fill="none" width="144.783" height="43.604"/>
	<text transform="matrix(1 0 0 1 22.7153 45.9932)" fill="#9A9A99" font-family="'Bebas'" font-size="20.5197">EXPERIENCE</text>
	<rect x="14.584" y="322.395" fill="none" width="109.695" height="27.359"/>
	<text transform="matrix(1 0 0 1 24.1626 340.6768)" fill="#9A9A99" font-family="'Bebas'" font-size="20.5197">eDUCATION</text>
	<ellipse fill="#3E3E3E" stroke="#B3AFB1" stroke-miterlimit="10" cx="94.762" cy="194.296" rx="2.644" ry="2.669"/>
	<ellipse fill="#3E3E3E" stroke="#B3AFB1" stroke-miterlimit="10" cx="284.045" cy="196.006" rx="2.644" ry="2.671"/>
	<ellipse fill="#3E3E3E" stroke="#B3AFB1" stroke-miterlimit="10" cx="93.213" cy="138.243" rx="2.643" ry="2.672"/>
	<ellipse fill="#3E3E3E" stroke="#B3AFB1" stroke-miterlimit="10" cx="576.211" cy="138.243" rx="2.643" ry="2.672"/>
	<ellipse fill="#3E3E3E" stroke="#B3AFB1" stroke-miterlimit="10" cx="673.031" cy="138.243" rx="2.643" ry="2.672"/>
	<path fill="#3E3E3E" stroke="#B3AFB1" stroke-miterlimit="10" d="M771.56,195.421c1.457,0,2.645,1.196,2.645,2.672
		s-1.188,2.671-2.645,2.671c-1.461,0-2.641-1.195-2.641-2.671S770.099,195.421,771.56,195.421z"/>
	<ellipse fill="#3E3E3E" stroke="#B3AFB1" stroke-miterlimit="10" cx="1107.003" cy="198.093" rx="2.643" ry="2.671"/>
	<path fill="#3E3E3E" stroke="#B3AFB1" stroke-miterlimit="10" d="M1061.722,196.168c1.461,0,2.646,1.195,2.646,2.671
		s-1.188,2.675-2.646,2.675s-2.643-1.199-2.643-2.675S1060.263,196.168,1061.722,196.168z"/>
	<ellipse fill="#3E3E3E" stroke="#B3AFB1" stroke-miterlimit="10" cx="1094.783" cy="138.243" rx="2.643" ry="2.672"/>
	<ellipse fill="#3E3E3E" stroke="#B3AFB1" stroke-miterlimit="10" cx="963.488" cy="138.243" rx="2.643" ry="2.672"/>
	<rect x="39.531" y="201.547" fill="none" width="298.817" height="55.186"/>
	<text transform="matrix(1 0 0 1 108.9985 216.7793)" fill="#010101" font-family="'Bebas'" font-size="17.0997">uNIVERSITY OF pHOENIX</text>
	<rect x="774.205" y="198.089" fill="none" width="298.816" height="55.179"/>
	<text transform="matrix(1 0 0 1 843.0542 213.3242)" fill="#010101" font-family="'Bebas'" font-size="17.0997">sOUTH  nEW  hAMPSHIRE </text>
	<text transform="matrix(1 0 0 1 882.7827 233.8438)" fill="#010101" font-family="'Bebas'" font-size="17.0997">uNIVERSITY</text>
	<rect x="212.188" y="98.637" fill="none" width="243.67" height="33.347"/>
	<text transform="matrix(1 0 0 1 276.8394 113.873)" fill="#010101" font-family="'Bebas'" font-size="17.0997">sELF-eMPLOYED</text>
	<rect x="548.634" y="0.927" fill="none" width="158.172" height="42.75"/>
	<text transform="matrix(1 0 0 1 552.4771 16.1641)" fill="#010101" font-family="'Bebas'" font-size="17.0997">lOUISVILLE  mARRIOTT</text>
	<rect x="716.986" y="87.131" fill="none" width="217.166" height="55.572"/>
	<text transform="matrix(1 0 0 1 730.9243 102.3672)" fill="#010101" font-family="'Bebas'" font-size="17.0997">fAMILY cARE cHIROPRACTIC</text>
	<rect x="967.871" y="30.244" fill="none" width="176.338" height="44.459"/>
	<text transform="matrix(1 0 0 1 978.189 45.4785)" fill="#010101" font-family="'Bebas'" font-size="17.0997">tOURBILLION  aLLIANCE </text>
	<text transform="matrix(1 0 0 1 1019.6694 65.9961)" fill="#010101" font-family="'Bebas'" font-size="17.0997">pARTNERS</text>
	<rect x="1018.017" y="306.512" fill="none" width="134.402" height="23.91"/>
	<text transform="matrix(1 0 0 1 1028.189 321.7246)" fill="#010101" font-family="'Bebas'" font-size="17.0749">cODE  lOUISVILLE</text>
	<rect x="741.361" y="241.01" fill="none" width="356.068" height="67.844"/>
	<text transform="matrix(1 0 0 1 855.7378 250.7646)" fill="#010101" font-family="'ArialMT'" font-size="13.6599">Bacholor of Science</text>
	<text transform="matrix(1 0 0 1 863.8472 267.1543)" fill="#686969" font-family="'ArialMT'" font-size="13.6599">Applied Info Tech</text>
	<text transform="matrix(1 0 0 1 793.2622 283.5449)" fill="#686969" font-family="'ArialMT'" font-size="13.6599">Concentrating in Software Development</text>
	<rect x="11.452" y="229.141" fill="none" width="356.069" height="67.844"/>
	<text transform="matrix(1 0 0 1 107.105 238.8906)" fill="#010101" font-family="'ArialMT'" font-size="13.6599">Dual Associate of Science</text>
	<text transform="matrix(1 0 0 1 113.0659 255.2832)" fill="#686969" font-family="'ArialMT'" font-size="13.6599">Business Administration</text>
	<text transform="matrix(1 0 0 1 119.022 271.6738)" fill="#686969" font-family="'ArialMT'" font-size="13.6599">Visual Communication</text>
	<rect x="155.991" y="124.188" fill="none" width="356.066" height="67.839"/>
	<text transform="matrix(1 0 0 1 268.7388 133.9395)" fill="#010101" font-family="'ArialMT'" font-size="13.6599">Digital Photographer</text>
	<rect x="449.689" y="24.582" fill="none" width="356.07" height="67.841"/>
	<text transform="matrix(1 0 0 1 570.9126 34.332)" fill="#010101" font-family="'ArialMT'" font-size="13.6599">Sales Coordinator</text>
	<rect x="646.048" y="108.782" fill="none" width="356.068" height="67.844"/>
	<text transform="matrix(1 0 0 1 775.6118 118.5342)" fill="#010101" font-family="'ArialMT'" font-size="13.6599">Office Manager</text>
	<rect x="960.398" y="74.861" fill="none" width="194.299" height="16.926"/>
	<text transform="matrix(1 0 0 1 971.6401 84.6113)" fill="#010101" font-family="'ArialMT'" font-size="13.6599">Front-End Developer Intern</text>
	<rect x="1000.041" y="330.422" fill="none" width="176.393" height="15.246"/>
	<text transform="matrix(1 0 0 1 1012.7124 340.1729)" fill="#010101" font-family="'ArialMT'" font-size="13.6599">Front-End Development</text>
</g>
<g id="Layer_3">
	<rect x="0.804" y="155.819" fill="none" width="168.431" height="57.283"/>
	<text transform="matrix(1 0 0 1 63.8784 174.1025)" fill="#FFFFFF" font-family="'Bebas'" font-size="20.5197">2007</text>
	<rect x="106.468" y="154.11" fill="none" width="168.433" height="57.287"/>
	<text transform="matrix(1 0 0 1 169.2075 172.3906)" fill="#FFFFFF" font-family="'Bebas'" font-size="20.5197">2008</text>
	<rect x="203.934" y="155.819" fill="none" width="168.434" height="57.283"/>
	<text transform="matrix(1 0 0 1 266.9946 174.1025)" fill="#FFFFFF" font-family="'Bebas'" font-size="20.5197">2009</text>
	<rect x="299.692" y="155.819" fill="none" width="168.434" height="57.283"/>
	<text transform="matrix(1 0 0 1 364.3579 174.1025)" fill="#FFFFFF" font-family="'Bebas'" font-size="20.5197">2010</text>
	<rect x="393.741" y="155.819" fill="none" width="168.433" height="57.283"/>
	<text transform="matrix(1 0 0 1 460.2183 174.1025)" fill="#FFFFFF" font-family="'Bebas'" font-size="20.5197">2011</text>
	<rect x="986.746" y="155.769" fill="none" width="168.434" height="57.281"/>
	<text transform="matrix(1 0 0 1 1051.6323 174.0498)" fill="#FFFFFF" font-family="'Bebas'" font-size="20.5197">2017</text>
	<rect x="879.269" y="155.819" fill="none" width="168.436" height="57.283"/>
	<text transform="matrix(1 0 0 1 944.146 174.1025)" fill="#FFFFFF" font-family="'Bebas'" font-size="20.5197">2016</text>
	<rect x="782.451" y="157.527" fill="none" width="168.434" height="57.288"/>
	<text transform="matrix(1 0 0 1 847.2144 175.8115)" fill="#FFFFFF" font-family="'Bebas'" font-size="20.5197">2015</text>
	<rect x="685.632" y="155.819" fill="none" width="168.434" height="57.283"/>
	<text transform="matrix(1 0 0 1 749.9634 174.1025)" fill="#FFFFFF" font-family="'Bebas'" font-size="20.5197">2014</text>
	<rect x="490.289" y="155.819" fill="none" width="168.431" height="57.283"/>
	<text transform="matrix(1 0 0 1 554.8247 174.1025)" fill="#FFFFFF" font-family="'Bebas'" font-size="20.5197">2012</text>
	<rect x="588.814" y="155.819" fill="none" width="168.432" height="57.283"/>
	<text transform="matrix(1 0 0 1 653.3726 174.1025)" fill="#FFFFFF" font-family="'Bebas'" font-size="20.5197">2013</text>
</g>
</svg>
