<?xml version="1.0" encoding="utf-8"?>
<!-- Generator: Adobe Illustrator 16.0.0, SVG Export Plug-In . SVG Version: 6.00 Build 0)  -->
<!DOCTYPE svg PUBLIC "-//W3C//DTD SVG 1.1//EN" "http://www.w3.org/Graphics/SVG/1.1/DTD/svg11.dtd">
<svg version="1.1" xmlns="http://www.w3.org/2000/svg" xmlns:xlink="http://www.w3.org/1999/xlink" x="0px" y="0px" width="38px"
	 height="38px" viewBox="0 0 38 38" enable-background="new 0 0 38 38" xml:space="preserve">
<g id="Layer_5">
	<circle fill="#3B3B3B" stroke="#3B3B3B" stroke-miterlimit="10" cx="19" cy="19" r="19"/>
</g>
<g id="Layer_4">
	<path fill="#FFFFFF" stroke="#FFFFFF" stroke-width="0.25" stroke-miterlimit="10" d="M22.143,8.722
		c-0.834-1.069-3.092-1.924-3.092-1.924C16.95,6.441,8.11,12.349,8.11,12.349c-1.149,1.177,0,12.724,0,12.724
		c1.784,2.141,9.751,6.146,11.416,6.145c2.29-0.001,9.543-4.584,10.465-6.025c0.922-1.442,0-12.308,0-12.308
		c-1.219-1.176-2.775-1.948-3.389-1.962c-2.774,1.334-3.865,5.708-3.865,5.708c-0.079,1.988,2.084,3.555,2.795,4.757
		c0.297,1.354-0.395,1.65-0.714,1.784c-1.725,0.719-2.319-0.714-2.319-0.714s0.219-2.433-1.308-2.616
		c-1.249-0.014-1.506,2.988-1.665,3.865c-0.158,0.876,0.218,1.465,0,2.021c-0.218,0.556-1.07,1.326-2.675,0.594
		c-1.605-0.731-0.991-1.726-0.713-2.378c0,0,0.079-0.354,0.892-0.892c0.264-0.813,1.999-5.047,1.999-5.047l-1.166,1.004
		c0,0-0.951,1.585-0.793,0.884c-0.435-0.606-1.466,1.078-1.466,1.078s-0.159,0.87-0.952,1.188c-0.792,0.319-1.328,0.217-1.724-0.416
		c-0.396-0.633-0.446-1.516-0.119-1.902c0.327-0.387,0.997-0.245,1.784-0.833c0.788-0.587,3.568-2.75,3.568-2.75
		c-2.121,2.142-2.23,0.401-2.854,0.907c-0.438,0.355-0.02,0.553-1.546,0.535c-0.907,0.104-1.174-0.966-1.189-1.234
		c-0.015-0.268,0.438-1.518,1.07-1.561c3.607,1.092,4.995-0.416,4.995-0.416S20.864,13.36,22.143,8.722z"/>
</g>
</svg>
