<?xml version="1.0" encoding="utf-8"?>
<!-- Generator: Adobe Illustrator 16.0.0, SVG Export Plug-In . SVG Version: 6.00 Build 0)  -->
<!DOCTYPE svg PUBLIC "-//W3C//DTD SVG 1.1//EN" "http://www.w3.org/Graphics/SVG/1.1/DTD/svg11.dtd">
<svg version="1.1" xmlns="http://www.w3.org/2000/svg" xmlns:xlink="http://www.w3.org/1999/xlink" x="0px" y="0px" width="38px"
	 height="38px" viewBox="0 0 38 38" enable-background="new 0 0 38 38" xml:space="preserve">
<g id="Layer_5">
	<circle fill="#3B3B3B" cx="19" cy="19" r="19"/>
</g>
<g id="Layer_4">
	<path fill="#FFFFFF" stroke="#FFFFFF" stroke-width="0.5" stroke-miterlimit="10" d="M7.406,27.76
		c4.209,0.281,7.334-1.844,7.396-2.031s-3.313,0.156-4.625-3.438c1.875,0.031,2.125-0.219,2.125-0.219s-3.625-0.375-3.906-4.874
		c1.531,0.875,2.219,0.594,2.219,0.594s-3.688-2.031-1.5-6.656c4.406,5.438,10.468,5.25,10.468,5.25s-0.937-4.75,2.688-5.875
		c3.625-1.125,5.688,1.25,5.688,1.25s1.156,0,3.031-1.25c-0.063,1.781-2.063,2.813-2.063,2.813l2.834-0.75
		c0,0-1.303,1.844-2.584,2.5C29.771,33.885,9.365,30.604,7.406,27.76z"/>
</g>
</svg>
